<?xml version="1.0" encoding="iso-8859-1"?>
<!-- Generator: Adobe Illustrator 19.0.0, SVG Export Plug-In . SVG Version: 6.00 Build 0)  -->
<svg version="1.1" id="Layer_1" xmlns="http://www.w3.org/2000/svg" xmlns:xlink="http://www.w3.org/1999/xlink" x="0px" y="0px"
	 viewBox="0 0 512 512" style="enable-background:new 0 0 512 512;" xml:space="preserve">
<path style="fill:#DBAD75;" d="M433.077,399.117L272,10.685C269.316,4.217,263.003,0,256,0c-7.003,0-13.317,4.217-15.999,10.685
	L78.924,399.117c-7.621,18.377-7.054,39.203,1.555,57.137c8.609,17.935,24.505,31.403,43.609,36.95
	c43.149,12.531,87.531,18.795,131.912,18.795c44.382,0,88.763-6.265,131.912-18.795c19.104-5.548,35-19.015,43.609-36.95
	C440.131,438.32,440.697,417.494,433.077,399.117z"/>
<path style="fill:#EABD81;" d="M256,0c-7.003,0-13.317,4.217-15.999,10.685L78.924,399.117c-7.621,18.377-7.054,39.203,1.555,57.137
	c8.609,17.935,24.505,31.403,43.609,36.95c43.149,12.531,87.531,18.795,131.912,18.795C256,508.862,256,0,256,0z"/>
<path style="fill:#0E4151;" d="M362.775,229.588L272,10.685C269.316,4.217,263.003,0,256,0c-7.003,0-13.317,4.217-15.999,10.685
	L114.557,313.186c47.124-8.295,101.722-23.359,158.482-44.764C305.056,256.348,335.219,243.211,362.775,229.588z"/>
<path style="fill:#144F66;" d="M256,0c-7.003,0-13.317,4.217-15.999,10.685L114.557,313.186
	c42.406-7.465,90.863-20.41,141.503-38.525L256,0z"/>
<path style="fill:#BC2A46;" d="M324.863,138.166L272,10.685C269.316,4.217,263.003,0,256,0c-7.003,0-13.317,4.217-15.999,10.685
	l-78.3,188.819c26.945-7.534,55.133-16.749,83.872-27.587C273.588,161.352,300.188,149.973,324.863,138.166z"/>
<path style="fill:#D62D46;" d="M256,0c-7.003,0-13.317,4.217-15.999,10.685l-78.3,188.819c26.945-7.534,55.133-16.749,83.872-27.587
	c3.519-1.327,7.016-2.667,10.489-4.019L256,0z"/>
<path style="fill:#BC2A46;" d="M397.936,314.379c-39.59,23.42-87.917,46.547-141.392,66.713
	c-66.83,25.202-130.676,41.625-182.835,48.544c0.481,9.142,2.727,18.199,6.769,26.619c8.609,17.935,24.505,31.403,43.609,36.95
	C167.236,505.736,211.618,512,255.999,512s88.763-6.265,131.912-18.795c19.104-5.548,35-19.015,43.609-36.95
	c8.609-17.935,9.176-38.76,1.555-57.137L397.936,314.379z"/>
<path style="fill:#D62D46;" d="M256,381.297c-66.632,25.087-130.273,41.439-182.29,48.34c0.481,9.142,2.727,18.199,6.769,26.619
	c8.609,17.935,24.505,31.403,43.609,36.95C167.237,505.736,211.619,512,256,512V381.297z"/>
<g>
</g>
<g>
</g>
<g>
</g>
<g>
</g>
<g>
</g>
<g>
</g>
<g>
</g>
<g>
</g>
<g>
</g>
<g>
</g>
<g>
</g>
<g>
</g>
<g>
</g>
<g>
</g>
<g>
</g>
</svg>
