<svg version="1.1" id="Layer_1" xmlns="http://www.w3.org/2000/svg" xmlns:xlink="http://www.w3.org/1999/xlink" x="0px" y="0px"
	 viewBox="0 0 512 512" style="enable-background:new 0 0 512 512;" xml:space="preserve">
 <g>
  <title>Layer 1</title>
  <g id="svg_1">
   <path d="m287.028,74.182l0,26.362l-27.885,0c-2.09,-0.016 -4.196,-0.016 -6.287,0l-0.356,0l-27.528,0l0,-26.362c0,-15.992 12.978,-28.954 28.97,-28.954l4.132,0c15.992,0 28.954,12.962 28.954,28.954z" fill="#000000" id="svg_2" stroke="#000000"/>
   <path d="m495.797,466.785c-74.142,-35.062 -140.962,-54.343 -239.797,-54.343s-165.655,19.281 -239.797,54.343l0,-3.872c27.674,-44.687 62.185,-77.724 101.347,-99.921c41.705,-23.607 88.725,-34.933 138.451,-34.933c50.114,0 97.474,11.488 139.423,35.5c38.756,22.165 72.928,55.008 100.375,99.322l0,3.904l-0.002,0z" fill="#000000" id="svg_3" stroke="#000000"/>
   <path d="m256,100.543c0,0 -161.377,29.926 -138.451,262.449c-39.162,22.197 -73.673,55.234 -101.347,99.921l0,-135.745c0,-58.167 23.413,-104.782 55.623,-141.416c49.077,-55.818 114.73,-84.221 180.674,-85.209l0.356,0l3.145,0l0,0z" fill="#000000" id="svg_4" stroke="#000000"/>
  </g>
  <path d="m256,100.543c0,0 162.69,29.926 139.747,262.449l-0.324,0.567c-41.948,-24.012 -89.308,-35.5 -139.423,-35.5c-49.726,0 -96.745,11.326 -138.451,34.933c-22.926,-232.523 138.451,-262.449 138.451,-262.449z" fill="#000000" id="svg_5"/>
  <path d="m395.747,362.992c22.943,-232.523 -139.747,-262.449 -139.747,-262.449l3.143,0c66.058,0.875 131.856,29.278 181.031,85.209c32.211,36.634 55.623,83.249 55.623,141.416l0,135.712c-27.447,-44.314 -61.618,-77.156 -100.375,-99.322l0.325,-0.566z" fill="#000000" id="svg_6"/>
  <g id="svg_7" fill="#fff319">
   <path d="m0.065,468.064c0.016,0.211 0.032,0.42 0.057,0.629c0.036,0.3 0.084,0.599 0.138,0.898c0.044,0.25 0.087,0.499 0.143,0.744c0.055,0.243 0.12,0.486 0.188,0.728c0.081,0.295 0.165,0.59 0.262,0.878c0.066,0.196 0.139,0.389 0.214,0.583c0.123,0.322 0.251,0.64 0.394,0.953c0.036,0.078 0.06,0.159 0.097,0.237c0.049,0.104 0.11,0.198 0.16,0.3c0.149,0.298 0.305,0.591 0.471,0.878c0.115,0.201 0.235,0.395 0.358,0.59c0.151,0.237 0.308,0.468 0.47,0.697c0.159,0.224 0.321,0.442 0.489,0.655c0.146,0.185 0.297,0.365 0.45,0.541c0.198,0.228 0.399,0.452 0.606,0.668c0.151,0.156 0.305,0.305 0.462,0.454c0.22,0.211 0.444,0.416 0.674,0.612c0.172,0.147 0.35,0.287 0.528,0.426c0.224,0.175 0.449,0.347 0.681,0.509c0.211,0.149 0.428,0.288 0.646,0.426c0.211,0.133 0.42,0.264 0.635,0.386c0.254,0.144 0.514,0.279 0.776,0.41c0.194,0.097 0.389,0.193 0.587,0.282c0.284,0.128 0.574,0.245 0.865,0.356c0.194,0.075 0.389,0.147 0.585,0.214c0.29,0.099 0.583,0.186 0.881,0.269c0.22,0.062 0.442,0.118 0.664,0.17c0.269,0.062 0.54,0.117 0.815,0.165c0.272,0.049 0.544,0.091 0.82,0.125c0.232,0.029 0.462,0.053 0.697,0.073c0.327,0.028 0.656,0.042 0.985,0.05c0.115,0.002 0.227,0.018 0.343,0.018c0.087,0 0.172,-0.011 0.258,-0.013c0.342,-0.005 0.682,-0.024 1.026,-0.052c0.207,-0.016 0.415,-0.032 0.621,-0.057c0.303,-0.036 0.604,-0.084 0.907,-0.138c0.246,-0.044 0.493,-0.087 0.736,-0.141c0.246,-0.055 0.491,-0.122 0.736,-0.19c0.293,-0.079 0.583,-0.164 0.87,-0.259c0.198,-0.066 0.394,-0.141 0.591,-0.217c0.321,-0.122 0.637,-0.25 0.948,-0.391c0.078,-0.036 0.159,-0.062 0.237,-0.097c67.004,-31.686 132.247,-52.788 232.871,-52.788s165.869,21.102 232.871,52.788c0.071,0.034 0.146,0.055 0.217,0.087c0.376,0.172 0.762,0.326 1.152,0.468c0.162,0.06 0.324,0.125 0.488,0.178c0.369,0.122 0.747,0.222 1.126,0.318c0.188,0.047 0.373,0.104 0.561,0.144c0.324,0.068 0.655,0.113 0.985,0.162c0.241,0.036 0.481,0.086 0.723,0.11c0.16,0.016 0.327,0.015 0.489,0.026c0.392,0.029 0.784,0.063 1.175,0.063c0.057,0 0.113,-0.011 0.172,-0.011c0.629,-0.006 1.248,-0.055 1.857,-0.131c0.183,-0.023 0.365,-0.053 0.546,-0.084c0.559,-0.089 1.108,-0.206 1.648,-0.35c0.113,-0.031 0.227,-0.055 0.34,-0.087c0.668,-0.196 1.317,-0.429 1.948,-0.706c0.079,-0.036 0.156,-0.078 0.235,-0.113c0.541,-0.248 1.063,-0.525 1.57,-0.83c0.144,-0.086 0.287,-0.17 0.428,-0.259c0.556,-0.356 1.097,-0.737 1.604,-1.158c0.089,-0.074 0.17,-0.159 0.258,-0.235c0.424,-0.368 0.826,-0.757 1.209,-1.165c0.141,-0.151 0.28,-0.301 0.416,-0.457c0.441,-0.507 0.86,-1.032 1.236,-1.593c0.023,-0.034 0.042,-0.073 0.066,-0.109c0.379,-0.574 0.711,-1.176 1.016,-1.797c0.034,-0.068 0.078,-0.126 0.11,-0.194c0.037,-0.078 0.062,-0.157 0.097,-0.237c0.143,-0.313 0.271,-0.63 0.394,-0.953c0.075,-0.194 0.147,-0.389 0.214,-0.583c0.097,-0.288 0.181,-0.582 0.262,-0.878c0.066,-0.243 0.133,-0.484 0.188,-0.728c0.055,-0.246 0.099,-0.494 0.143,-0.744c0.053,-0.3 0.102,-0.598 0.138,-0.898c0.024,-0.207 0.04,-0.418 0.057,-0.629c0.028,-0.34 0.047,-0.679 0.052,-1.019c0.002,-0.087 0.013,-0.172 0.013,-0.259l0,-139.619c0,-55.913 -20.072,-107.092 -59.658,-152.114c-40.375,-45.923 -92.21,-75.695 -149.112,-86.338l0,-14.534c0,-24.898 -20.256,-45.156 -45.156,-45.156l-4.132,0c-24.908,0 -45.173,20.256 -45.173,45.156l0,14.529c-56.884,10.648 -108.742,40.429 -149.112,86.343c-39.596,45.027 -59.668,96.206 -59.668,152.119l0,139.617c0,0.087 0.011,0.172 0.013,0.259c0.0025,0.1695 0.0085,0.33925 0.01737,0.50925c0.00888,0.17 0.02063,0.34025 0.03463,0.51075zm60.583,-38.007c19.151,-21.604 40.85,-39.343 64.883,-52.966c38.486,-21.784 82.382,-32.83 130.469,-32.83c48.504,0 92.704,11.224 131.378,33.361c23.686,13.547 45.093,31.109 64.011,52.449c-54.97,-20.921 -114.335,-33.834 -195.39,-33.834c-81.036,0.003 -140.392,12.909 -195.351,33.82zm367.358,-233.606c34.231,38.933 51.589,82.912 51.589,130.717l0,85.972c-19.762,-23.184 -42.13,-42.624 -66.897,-58.099c9.103,-115.205 -27.387,-181.216 -62.177,-217.307c28.837,13.509 55.137,33.297 77.485,58.717zm-186.831,-122.269c0,-7.03 5.728,-12.751 12.768,-12.751l4.132,0c7.03,0 12.751,5.719 12.751,12.751l0,10.159l-29.651,0l0,-10.159zm-157.181,122.269c44.33,-50.419 104.239,-78.723 168.693,-79.705l1.615,0c6.559,1.513 38.53,10.102 68.913,39.474c41.757,40.369 61.641,102.953 58.08,181.917c-38.029,-17.429 -80.05,-26.279 -125.294,-26.279c-44.716,0 -86.314,8.654 -124.042,25.704c-1.403,-31.089 0.74,-59.643 6.429,-85.125c1.949,-8.733 -3.548,-17.393 -12.283,-19.344c-8.741,-1.946 -17.393,3.55 -19.344,12.283c-7.244,32.449 -9.326,69.042 -6.233,108.891c-25.255,15.611 -48.034,35.317 -68.122,58.891l0,-85.99c-0.001,-47.805 17.355,-91.784 51.588,-130.717z" fill="#fff319" id="svg_8"/>
   <circle cx="139.714" cy="198.538" r="16.203" fill="#fff319" id="svg_9"/>
  </g>
  <g id="svg_10"/>
  <g id="svg_11"/>
  <g id="svg_12"/>
  <g id="svg_13"/>
  <g id="svg_14"/>
  <g id="svg_15"/>
  <g id="svg_16"/>
  <g id="svg_17"/>
  <g id="svg_18"/>
  <g id="svg_19"/>
  <g id="svg_20"/>
  <g id="svg_21"/>
  <g id="svg_22"/>
  <g id="svg_23"/>
  <g id="svg_24"/>
  <text style="cursor: move;" font-style="normal" fill="#fff139" stroke="#fff319" x="163.17066" y="275.39794" id="svg_25" font-size="50" font-family="'Open Sans'" text-anchor="start" xml:space="preserve" font-weight="normal">NEWBIE</text>
 </g>

</svg>